<svg width="14" height="15" viewBox="0 0 14 15" fill="none" xmlns="http://www.w3.org/2000/svg">
<path d="M7 0.96875C3.22656 0.96875 0.21875 4.00391 0.21875 7.75C0.21875 11.5234 3.22656 14.5312 7 14.5312C8.3125 14.5312 9.59766 14.1484 10.6914 13.4375C11.0195 13.2188 11.1016 12.7812 10.8281 12.4805L10.5547 12.125C10.3633 11.8789 9.98047 11.8242 9.70703 11.9883C8.88672 12.5078 7.95703 12.7812 7 12.7812C4.21094 12.7812 1.96875 10.5391 1.96875 7.75C1.96875 4.98828 4.21094 2.71875 7 2.71875C9.73438 2.71875 12.0312 4.30469 12.0312 7.09375C12.0312 8.16016 11.4297 9.28125 10.418 9.39062C9.95312 9.39062 9.95312 9.03516 10.0625 8.57031L10.6914 5.26172C10.7734 4.85156 10.4727 4.46875 10.0625 4.46875H8.83203C8.64062 4.46875 8.47656 4.63281 8.44922 4.79688V4.82422C8.06641 4.33203 7.35547 4.22266 6.80859 4.22266C4.78516 4.22266 3.0625 5.91797 3.0625 8.35156C3.0625 10.1562 4.04688 11.25 5.6875 11.25C6.39844 11.25 7.24609 10.8398 7.71094 10.2109C7.98438 11.1406 8.83203 11.1406 9.65234 11.1406C12.6328 11.1406 13.7812 9.17188 13.7812 7.09375C13.7812 3.375 10.7734 0.96875 7 0.96875ZM6.39844 9.30859C5.79688 9.30859 5.41406 8.87109 5.41406 8.1875C5.41406 6.95703 6.26172 6.19141 7 6.19141C7.62891 6.19141 7.98438 6.62891 7.98438 7.3125C7.98438 8.54297 7.05469 9.30859 6.39844 9.30859Z" fill="#747070"/>
</svg>
