<svg id="Capa_1" enable-background="new 0 0 510.002 510.002" height="512" viewBox="0 0 510.002 510.002" width="512" xmlns="http://www.w3.org/2000/svg"><path d="m443.261 299.34v141.02c0 5.53-4.47 10-10 10h-307.56c-32.559 0-58.96-26.399-58.96-58.96 0-32.56 19.26-92.06 19.26-92.06z" fill="#ebe1dc"/><path d="m443.261 299.34v141.02c0 5.53-4.47 10-10 10h-136.88v-151.02z" fill="#dcd2cd"/><path d="m149.501 0 17.833 159.333-17.833 173.097h-23.8c-32.56 0-58.96 26.4-58.96 58.97v-332.43c0-32.57 26.4-58.97 58.96-58.97z" fill="#5a5555"/><path d="m443.261 10v312.43c0 5.53-4.47 10-10 10h-283.76v-332.43h283.76c5.53 0 10 4.48 10 10z" fill="#00ccb3"/><path d="m443.261 10v312.43c0 5.53-4.47 10-10 10h-136.88v-332.43h136.88c5.53 0 10 4.48 10 10z" fill="#00b6bd"/><path d="m384.011 72.97v67.63c0 8.28-6.71 15-15 15h-145.26c-8.28 0-15-6.72-15-15v-67.63c0-8.28 6.72-15 15-15h145.26c8.29 0 15 6.72 15 15z" fill="#5a5555"/><path d="m384.011 72.97v67.63c0 8.28-6.71 15-15 15h-72.63v-97.63h72.63c8.29 0 15 6.72 15 15z" fill="#464141"/><path d="m238.751 87.97h115.26v37.63h-115.26z" fill="#ebe1dc"/><path d="m296.381 87.97h57.63v37.63h-57.63z" fill="#dcd2cd"/><path d="m260.521 397.01v107.98c0 4.23-4.92 6.55-8.18 3.86l-33.69-27.84c-.93-.76-2.05-1.14-3.19-1.14-1.12 0-2.26.38-3.18 1.14l-33.69 27.84c-3.26 2.69-8.18.37-8.18-3.86v-107.98z" fill="#ff7c48"/><path d="m260.521 397.01v107.98c0 4.23-4.92 6.55-8.18 3.86l-33.69-27.84c-.93-.76-2.05-1.14-3.19-1.14v-82.86z" fill="#ff415b"/><path d="m443.261 378.67v30h-278.76c-8.28 0-15-6.71-15-15 0-8.262 6.703-15 15-15z" fill="#fff5f5"/><path d="m296.381 378.67h146.88v30h-146.88z" fill="#ebe1dc"/></svg>