<?xml version="1.0" encoding="iso-8859-1"?>
<!-- Generator: Adobe Illustrator 16.0.0, SVG Export Plug-In . SVG Version: 6.00 Build 0)  -->
<!DOCTYPE svg PUBLIC "-//W3C//DTD SVG 1.1//EN" "http://www.w3.org/Graphics/SVG/1.1/DTD/svg11.dtd">
<svg version="1.1" id="Capa_1" xmlns="http://www.w3.org/2000/svg" xmlns:xlink="http://www.w3.org/1999/xlink" x="0px" y="0px"
	 width="489.682px" height="489.682px" viewBox="0 0 489.682 489.682" style="enable-background:new 0 0 489.682 489.682;"
	 xml:space="preserve">
<g>
	<g>
		<polygon points="31.38,339.21 110.117,339.21 0,449.325 36.898,486.222 147.013,376.108 147.013,454.843 199.193,454.843 
			199.193,287.03 31.38,287.03 		"/>
		<polygon points="458.302,339.21 458.302,287.03 290.488,287.03 290.488,454.843 342.669,454.843 342.669,376.108 452.782,486.222 
			489.682,449.325 379.564,339.21 		"/>
		<polygon points="458.302,150.472 379.564,150.472 489.682,40.357 452.782,3.46 342.669,113.574 342.669,34.839 290.488,34.839 
			290.488,202.652 458.302,202.652 		"/>
		<polygon points="147.013,113.574 36.898,3.46 0,40.357 110.117,150.472 31.38,150.472 31.38,202.652 199.193,202.652 
			199.193,34.839 147.013,34.839 		"/>
	</g>
</g>
<g>
</g>
<g>
</g>
<g>
</g>
<g>
</g>
<g>
</g>
<g>
</g>
<g>
</g>
<g>
</g>
<g>
</g>
<g>
</g>
<g>
</g>
<g>
</g>
<g>
</g>
<g>
</g>
<g>
</g>
</svg>
