<svg width="14" height="11" viewBox="0 0 14 11" fill="none" xmlns="http://www.w3.org/2000/svg">
<path d="M12.6875 11C13.3984 11 14 10.4258 14 9.6875V1.8125C14 1.10156 13.3984 0.5 12.6875 0.5H1.3125C0.574219 0.5 0 1.10156 0 1.8125V9.6875C0 10.4258 0.574219 11 1.3125 11H12.6875ZM3.0625 2.03125C3.88281 2.03125 4.59375 2.74219 4.59375 3.5625C4.59375 4.41016 3.88281 5.09375 3.0625 5.09375C2.21484 5.09375 1.53125 4.41016 1.53125 3.5625C1.53125 2.74219 2.21484 2.03125 3.0625 2.03125ZM1.75 9.25V7.9375L3.69141 5.99609C3.82812 5.85938 4.01953 5.85938 4.15625 5.99609L5.6875 7.5L9.37891 3.80859C9.51562 3.67188 9.70703 3.67188 9.84375 3.80859L12.25 6.1875V9.25H1.75Z" fill="#DFDFE0"/>
</svg>
