<?xml version="1.0" encoding="iso-8859-1"?>
<!-- Generator: Adobe Illustrator 19.0.0, SVG Export Plug-In . SVG Version: 6.00 Build 0)  -->
<svg version="1.1" id="Layer_1" xmlns="http://www.w3.org/2000/svg" xmlns:xlink="http://www.w3.org/1999/xlink" x="0px" y="0px"
	 viewBox="0 0 511.998 511.998" style="enable-background:new 0 0 511.998 511.998;" xml:space="preserve">
<g>
	<g>
		<rect x="161.605" y="359.567" width="350.393" height="70.078"/>
	</g>
</g>
<g>
	<g>
		<path d="M59.599,45.267H33.625L0,149.322h24.326l5.865-21.236h32.841l5.94,21.236h24.326L59.599,45.267z M35.557,111.098
			l10.805-38.225h0.427l10.875,38.225H35.557z"/>
	</g>
</g>
<g>
	<g>
		<path d="M88.928,263.393c-2.905-4.179-7.414-6.948-13.519-8.331c4.865-1.956,8.465-4.865,10.805-8.73
			c2.336-3.861,3.504-8.273,3.504-13.234c0-9.492-3.625-16.604-10.875-21.399c-7.25-4.793-17.337-7.161-30.265-7.161H12.956v104.056
			h40.773c12.737,0,22.514-2.57,29.335-7.768c6.819-5.199,10.232-12.865,10.232-23.026
			C93.296,272.361,91.839,267.566,88.928,263.393z M36.313,223.648h0.002h12.262c5.723,0,9.97,0.731,12.737,2.756
			c2.767,2.028,4.147,5.116,4.147,9.554c0,3.912-1.357,6.358-4.077,8.384c-2.716,2.028-6.823,2.665-12.306,2.665H36.313V223.648z
			 M65.322,286.723c-2.576,2.028-6.441,2.756-11.593,2.756H36.316v-25.483H55.09c4.961,0,8.547,1.123,10.767,3.438
			c2.219,2.315,3.326,5.579,3.326,10.11C69.182,281.741,67.898,284.695,65.322,286.723z"/>
	</g>
</g>
<g>
	<g>
		<path d="M37.573,384.776c3.147-4.411,7.851-6.617,13.338-6.617c6.488,0,11.274,1.44,13.971,4.731
			c2.693,3.292,4.4,8.522,4.736,14.893h23.538l0.144-0.225c-0.909-12.209-4.844-21.529-11.805-28.157
			c-6.97-6.632-17.033-9.843-30.197-9.843c-12.402,0-22.844,3.969-30.597,11.911c-7.751,7.94-11.994,18.208-11.994,30.801v21.75
			c0,12.64,4.396,22.92,12.459,30.837c8.059,7.919,18.717,11.875,31.595,11.875c12.829,0,22.708-3.219,29.461-9.658
			c6.749-6.439,10.408-15.279,10.883-27.49l-0.096,0.051H69.473c-0.336,6.371-1.718,11.227-4.152,14.328
			c-2.432,3.1-6.558,4.406-12.376,4.406c-6.01,0-11.512-2.338-14.946-6.772c-3.434-4.436-5.929-10.376-5.929-17.577v-21.894
			C32.07,394.971,34.426,389.186,37.573,384.776z"/>
	</g>
</g>
<g>
	<g>
		<rect x="161.605" y="221.533" width="350.393" height="70.078"/>
	</g>
</g>
<g>
	<g>
		<rect x="161.605" y="79.252" width="350.393" height="70.078"/>
	</g>
</g>
<g>
</g>
<g>
</g>
<g>
</g>
<g>
</g>
<g>
</g>
<g>
</g>
<g>
</g>
<g>
</g>
<g>
</g>
<g>
</g>
<g>
</g>
<g>
</g>
<g>
</g>
<g>
</g>
<g>
</g>
</svg>
