<?xml version="1.0" encoding="iso-8859-1"?>
<!-- Generator: Adobe Illustrator 19.0.0, SVG Export Plug-In . SVG Version: 6.00 Build 0)  -->
<svg version="1.1" id="Layer_1" xmlns="http://www.w3.org/2000/svg" xmlns:xlink="http://www.w3.org/1999/xlink" x="0px" y="0px"
	 viewBox="0 0 511.994 511.994" style="enable-background:new 0 0 511.994 511.994;" xml:space="preserve">
<g>
	<g>
		<path d="M35.537,292.171l-0.225-0.863l14.613-15.857c9.495-10.333,16.006-18.227,19.544-23.469
			c3.533-5.241,5.301-11.326,5.301-18.148c0-10.135-3.326-18.146-9.974-23.984c-6.65-5.831-15.909-8.761-27.775-8.761
			c-11.174,0-20.149,3.467-26.923,10.412c-6.774,6.945-10.038,15.306-9.789,25.294l0.15,0.339h24.473v0.002
			c0-4.403,1.076-8.909,3.227-12.097c2.151-3.19,5.105-4.731,8.863-4.731c4.202,0,7.355,1.261,9.457,3.731
			c2.1,2.474,3.152,5.801,3.152,9.955c0,2.917-1.039,6.36-3.115,10.313c-2.076,3.956-5.719,8.458-10.122,13.501L1.28,294.304v15.478
			h74.847v-17.611H35.537z"/>
	</g>
</g>
<g>
	<g>
		<polygon points="51.911,127.068 51.911,37.719 1.28,45.283 1.28,63.228 25.495,63.228 25.495,127.068 1.28,127.068 1.28,146.88 
			76.126,146.88 76.126,127.068 		"/>
	</g>
</g>
<g>
	<g>
		<path d="M73.066,427.032c-3.265-4.33-7.789-7.542-13.574-9.668c5.092-2.325,9.16-5.55,12.2-9.677
			c3.042-4.128,4.561-8.643,4.561-13.534c0-9.84-3.511-17.442-10.531-22.806c-7.02-5.367-16.389-8.046-28.109-8.046
			c-10.087,0-18.665,2.67-25.736,8.011c-7.071,5.341-10.459,12.695-10.161,21.298l0.15,0.83h24.327c0-4.403,1.233-5.774,3.707-7.654
			c2.472-1.88,5.341-3.009,8.603-3.009c4.154,0,7.317,1.065,9.495,3.39c2.175,2.325,3.262,5.142,3.262,8.555
			c0,4.301-1.211,7.868-3.632,10.291c-2.424,2.424-5.884,3.837-10.384,3.837H25.495v17.611h11.749c4.995,0,8.863,1.475,11.608,3.872
			c2.745,2.399,4.117,6.358,4.117,11.597c0,3.76-1.312,6.943-3.929,9.415c-2.622,2.472-6.133,3.74-10.534,3.74
			c-3.857,0-7.13-1.662-9.827-4.009c-2.697-2.347-4.042-4.803-4.042-9.206H0.159l-0.147,0.951
			c-0.247,10.087,3.423,18.042,11.013,23.357c7.59,5.314,16.453,8.099,26.588,8.099c11.769,0,21.435-2.765,29.001-8.427
			c7.566-5.66,11.346-13.406,11.346-23.295C77.96,436.522,76.331,431.36,73.066,427.032z"/>
	</g>
</g>
<g>
	<g>
		<rect x="148.767" y="362.606" width="363.227" height="72.645"/>
	</g>
</g>
<g>
	<g>
		<rect x="148.767" y="219.517" width="363.227" height="72.645"/>
	</g>
</g>
<g>
	<g>
		<rect x="148.767" y="72.034" width="363.227" height="72.645"/>
	</g>
</g>
<g>
</g>
<g>
</g>
<g>
</g>
<g>
</g>
<g>
</g>
<g>
</g>
<g>
</g>
<g>
</g>
<g>
</g>
<g>
</g>
<g>
</g>
<g>
</g>
<g>
</g>
<g>
</g>
<g>
</g>
</svg>
