<svg id="Capa_1" enable-background="new 0 0 512.045 512.045" height="512" viewBox="0 0 512.045 512.045" width="512" xmlns="http://www.w3.org/2000/svg"><g><g><g><path d="m7.515 7.523h165.667v228.297h-165.667z" fill="#bebebe"/></g><g><g><circle cx="46.911" cy="160.057" fill="#fbe77b" r="13.132"/></g></g></g><g><g><path d="m173.182 7.523h165.667v228.297h-165.667z" fill="#bebebe"/></g><g><g><circle cx="212.578" cy="160.057" fill="#fbe77b" r="13.132"/></g></g></g><g><g><path d="m338.848 7.523h165.667v228.297h-165.667z" fill="#bebebe"/></g><g><g><circle cx="378.245" cy="160.057" fill="#fbe77b" r="13.132"/></g></g></g><g><g><path d="m7.515 235.819h165.667v228.297h-165.667z" fill="#bebebe"/></g><g><g><circle cx="46.911" cy="388.354" fill="#fbe77b" r="13.132"/></g></g></g><g><g><path d="m173.182 235.819h165.667v228.297h-165.667z" fill="#bebebe"/></g><g><g><circle cx="212.578" cy="388.354" fill="#fbe77b" r="13.132"/></g></g></g><g><g><path d="m338.848 235.819h165.667v228.297h-165.667z" fill="#bebebe"/></g><g><g><circle cx="378.245" cy="388.354" fill="#fbe77b" r="13.132"/></g></g></g><g><path d="m484.312 235.819h20.203v228.297h-20.203z" fill="#818181"/></g><g><path d="m484.312 7.523h20.203v228.297h-20.203z" fill="#818181"/></g><g><path d="m318.645 235.819h20.203v228.297h-20.203z" fill="#818181"/></g><g><path d="m318.645 7.523h20.203v228.297h-20.203z" fill="#818181"/></g><g><path d="m152.979 235.819h20.203v228.297h-20.203z" fill="#818181"/></g><g><path d="m152.979 7.523h20.203v228.297h-20.203z" fill="#818181"/></g><g><path d="m7.515 464.116h497v40.407h-497z" fill="#818181"/></g><g><path d="m484.312 464.116h20.203v40.407h-20.203z" fill="#595959"/></g><g><path d="m59.033 84.724h60.61c4.142 0 7.5-3.357 7.5-7.5s-3.358-7.5-7.5-7.5h-60.61c-4.142 0-7.5 3.357-7.5 7.5s3.358 7.5 7.5 7.5z"/><path d="m59.033 110.989h60.61c4.142 0 7.5-3.357 7.5-7.5s-3.358-7.5-7.5-7.5h-60.61c-4.142 0-7.5 3.357-7.5 7.5s3.358 7.5 7.5 7.5z"/><path d="m46.912 180.69c11.376 0 20.632-9.256 20.632-20.633 0-1.954-.291-3.839-.801-5.632h9.464c4.142 0 7.5-3.357 7.5-7.5s-3.358-7.5-7.5-7.5h-29.295c-.259 0-.516.013-.768.039-11.019.409-19.864 9.476-19.864 20.593-.001 11.377 9.255 20.633 20.632 20.633zm0-26.265c3.105 0 5.632 2.526 5.632 5.632s-2.526 5.633-5.632 5.633-5.632-2.527-5.632-5.633 2.526-5.632 5.632-5.632z"/><path d="m224.7 84.724h60.61c4.143 0 7.5-3.357 7.5-7.5s-3.357-7.5-7.5-7.5h-60.61c-4.142 0-7.5 3.357-7.5 7.5s3.358 7.5 7.5 7.5z"/><path d="m224.7 110.989h60.61c4.143 0 7.5-3.357 7.5-7.5s-3.357-7.5-7.5-7.5h-60.61c-4.142 0-7.5 3.357-7.5 7.5s3.358 7.5 7.5 7.5z"/><path d="m212.578 180.69c11.376 0 20.632-9.256 20.632-20.633 0-1.954-.291-3.839-.801-5.632h9.464c4.142 0 7.5-3.357 7.5-7.5s-3.358-7.5-7.5-7.5h-29.295c-.259 0-.516.013-.768.039-11.019.409-19.864 9.476-19.864 20.593 0 11.377 9.256 20.633 20.632 20.633zm0-26.265c3.105 0 5.632 2.526 5.632 5.632s-2.527 5.633-5.632 5.633-5.632-2.527-5.632-5.633 2.527-5.632 5.632-5.632z"/><path d="m450.976 69.724h-60.609c-4.143 0-7.5 3.357-7.5 7.5s3.357 7.5 7.5 7.5h60.609c4.143 0 7.5-3.357 7.5-7.5s-3.357-7.5-7.5-7.5z"/><path d="m458.476 103.489c0-4.143-3.357-7.5-7.5-7.5h-60.609c-4.143 0-7.5 3.357-7.5 7.5s3.357 7.5 7.5 7.5h60.609c4.143 0 7.5-3.358 7.5-7.5z"/><path d="m415.04 146.925c0-4.143-3.357-7.5-7.5-7.5h-29.295c-.26 0-.516.013-.769.039-11.018.409-19.863 9.476-19.863 20.593 0 11.377 9.256 20.633 20.632 20.633s20.632-9.256 20.632-20.633c0-1.954-.291-3.839-.801-5.632h9.464c4.142 0 7.5-3.357 7.5-7.5zm-36.795 18.765c-3.105 0-5.632-2.527-5.632-5.633s2.526-5.632 5.632-5.632 5.632 2.526 5.632 5.632-2.527 5.633-5.632 5.633z"/><path d="m59.033 313.021h60.61c4.142 0 7.5-3.357 7.5-7.5s-3.358-7.5-7.5-7.5h-60.61c-4.142 0-7.5 3.357-7.5 7.5s3.358 7.5 7.5 7.5z"/><path d="m59.033 339.284h60.61c4.142 0 7.5-3.357 7.5-7.5s-3.358-7.5-7.5-7.5h-60.61c-4.142 0-7.5 3.357-7.5 7.5s3.358 7.5 7.5 7.5z"/><path d="m46.143 367.761c-11.019.409-19.864 9.476-19.864 20.593 0 11.377 9.256 20.633 20.632 20.633s20.632-9.256 20.632-20.633c0-1.954-.291-3.839-.801-5.632h9.464c4.142 0 7.5-3.357 7.5-7.5s-3.358-7.5-7.5-7.5h-29.294c-.26 0-.516.013-.769.039zm6.4 20.593c0 3.105-2.526 5.633-5.632 5.633s-5.632-2.527-5.632-5.633 2.527-5.632 5.632-5.632 5.632 2.526 5.632 5.632z"/><path d="m224.7 313.021h60.61c4.143 0 7.5-3.357 7.5-7.5s-3.357-7.5-7.5-7.5h-60.61c-4.142 0-7.5 3.357-7.5 7.5s3.358 7.5 7.5 7.5z"/><path d="m224.7 339.284h60.61c4.143 0 7.5-3.357 7.5-7.5s-3.357-7.5-7.5-7.5h-60.61c-4.142 0-7.5 3.357-7.5 7.5s3.358 7.5 7.5 7.5z"/><path d="m212.578 408.987c11.376 0 20.632-9.256 20.632-20.633 0-1.954-.291-3.839-.801-5.632h9.464c4.142 0 7.5-3.357 7.5-7.5s-3.358-7.5-7.5-7.5h-29.295c-.259 0-.516.013-.768.039-11.019.409-19.864 9.476-19.864 20.593 0 11.377 9.256 20.633 20.632 20.633zm0-26.265c3.105 0 5.632 2.526 5.632 5.632s-2.527 5.633-5.632 5.633-5.632-2.527-5.632-5.633 2.527-5.632 5.632-5.632z"/><path d="m390.367 313.021h60.609c4.143 0 7.5-3.357 7.5-7.5s-3.357-7.5-7.5-7.5h-60.609c-4.143 0-7.5 3.357-7.5 7.5s3.357 7.5 7.5 7.5z"/><path d="m390.367 339.284h60.609c4.143 0 7.5-3.357 7.5-7.5s-3.357-7.5-7.5-7.5h-60.609c-4.143 0-7.5 3.357-7.5 7.5s3.357 7.5 7.5 7.5z"/><path d="m378.245 408.987c11.376 0 20.632-9.256 20.632-20.633 0-1.954-.291-3.839-.801-5.632h9.464c4.143 0 7.5-3.357 7.5-7.5s-3.357-7.5-7.5-7.5h-29.295c-.26 0-.516.013-.769.039-11.018.409-19.863 9.476-19.863 20.593 0 11.377 9.256 20.633 20.632 20.633zm0-26.265c3.105 0 5.632 2.526 5.632 5.632s-2.526 5.633-5.632 5.633-5.632-2.527-5.632-5.633 2.526-5.632 5.632-5.632z"/><path d="m504.515 146.951c-4.143 0-7.5 3.357-7.5 7.5v73.868h-150.667v-213.296h150.669l.028 104.317c.001 4.142 3.358 7.498 7.5 7.498h.002c4.143-.001 7.499-3.36 7.498-7.502l-.03-111.815c-.001-4.142-3.358-7.498-7.5-7.498h-165.667-165.666-165.667c-4.142 0-7.5 3.357-7.5 7.5l-.015 340.11c-.001 4.142 3.356 7.501 7.498 7.502h.002c4.141 0 7.499-3.356 7.5-7.498l.028-104.317h150.653v213.297h-150.651v-73.868c0-4.143-3.358-7.5-7.5-7.5s-7.5 3.357-7.5 7.5l-.015 121.774c0 4.143 3.358 7.5 7.5 7.5h416.226c4.143 0 7.5-3.357 7.5-7.5s-3.357-7.5-7.5-7.5h-408.726v-25.406h482v25.406h-38.214c-4.143 0-7.5 3.357-7.5 7.5s3.357 7.5 7.5 7.5h45.714c4.143 0 7.5-3.357 7.5-7.5v-350.072c0-4.142-3.357-7.5-7.5-7.5zm-338.833 81.369h-150.667v-213.297h150.667zm165.666 228.296h-150.651v-213.296h150.651zm0-228.296h-150.666v-213.297h150.667v213.297zm165.667 228.296h-150.667v-213.296h150.667z"/></g></g></svg>