<svg width="32" height="32" viewBox="0 0 32 32" fill="none" xmlns="http://www.w3.org/2000/svg">
<rect width="32" height="32" rx="10" fill="#0084DE"/>
<rect width="32" height="32" rx="10" fill="url(#paint0_linear)" fill-opacity="0.2"/>
<rect x="0.25" y="0.25" width="31.5" height="31.5" rx="9.75" stroke="white" stroke-opacity="0.5" stroke-width="0.5"/>
<path d="M23.6229 5C24.0601 5 24.3989 5.11898 24.6393 5.35693C24.8798 5.59489 25 5.93019 25 6.36283V25.6372C25 26.0698 24.8798 26.4051 24.6393 26.6431C24.3989 26.881 24.0601 27 23.6229 27C23.3607 27 23.1202 26.9351 22.9016 26.8053C22.6831 26.6755 22.4645 26.47 22.2459 26.1888L9.7541 10.2566V25.6372C9.7541 26.0698 9.63388 26.4051 9.39344 26.6431C9.15301 26.881 8.81421 27 8.37705 27C7.93989 27 7.60109 26.881 7.36066 26.6431C7.12022 26.4051 7 26.0698 7 25.6372V6.36283C7 5.93019 7.12022 5.59489 7.36066 5.35693C7.60109 5.11898 7.93989 5 8.37705 5C8.63934 5 8.86885 5.0649 9.06557 5.19469C9.28415 5.32448 9.51366 5.52999 9.7541 5.81121L22.2459 21.7434V6.36283C22.2459 5.93019 22.3661 5.59489 22.6066 5.35693C22.847 5.11898 23.1858 5 23.6229 5Z" fill="white"/>
<path d="M7.00894 5.00155L7.00894 5.00155C6.64902 5.35775 6.5 5.83578 6.5 6.36283V25.6372C6.5 26.1642 6.64902 26.6423 7.00894 26.9985C7.36811 27.3539 7.84833 27.5 8.37705 27.5C8.90577 27.5 9.38599 27.3539 9.74516 26.9985C10.1051 26.6423 10.2541 26.1642 10.2541 25.6372V11.7047L21.8511 26.4956C21.8513 26.4959 21.8515 26.4961 21.8517 26.4963C22.0942 26.8083 22.3573 27.0636 22.6464 27.2352C22.9447 27.4124 23.2738 27.5 23.6229 27.5C24.1517 27.5 24.6319 27.3539 24.9911 26.9985C25.351 26.6423 25.5 26.1642 25.5 25.6372V6.36283C25.5 5.83578 25.351 5.35775 24.9911 5.00155C24.6319 4.64609 24.1517 4.5 23.6229 4.5C23.0942 4.5 22.614 4.64609 22.2548 5.00155C21.8949 5.35775 21.7459 5.83578 21.7459 6.36283V20.2953L10.1476 5.5027L10.141 5.49435L10.1341 5.48629C9.87591 5.18427 9.60899 4.93795 9.33079 4.77071C9.04573 4.58561 8.72169 4.5 8.37705 4.5C7.84833 4.5 7.36811 4.64609 7.00894 5.00155Z" stroke="white" stroke-opacity="0.5"/>
<defs>
<linearGradient id="paint0_linear" x1="16" y1="0" x2="16" y2="32" gradientUnits="userSpaceOnUse">
<stop stop-color="white"/>
<stop offset="1" stop-color="white" stop-opacity="0"/>
</linearGradient>
</defs>
</svg>
