<svg height="511pt" viewBox="1 -1 511.99998 511" width="511pt" xmlns="http://www.w3.org/2000/svg"><path d="m79.296875 300.792969h-66.066406c-7.308594 0-13.230469 5.921875-13.230469 13.230469v196.398437h92.527344v-196.398437c0-7.308594-5.925782-13.230469-13.230469-13.230469zm0 0" fill="#49c3e0"/><path d="m44.136719 300.792969h-30.90625c-7.308594 0-13.230469 5.921875-13.230469 13.230469v196.394531h30.90625v-196.394531c0-7.308594 5.921875-13.230469 13.230469-13.230469zm0 0" fill="#00a5c6"/><path d="m219.121094 248.980469h-66.066406c-7.308594 0-13.230469 5.921875-13.230469 13.230469v248.210937h92.527343v-248.210937c0-7.308594-5.925781-13.230469-13.230468-13.230469zm0 0" fill="#3ac7b4"/><path d="m183.960938 248.980469h-30.90625c-7.308594 0-13.230469 5.921875-13.230469 13.230469v248.210937h30.90625v-248.210937c0-7.308594 5.921875-13.230469 13.230469-13.230469zm0 0" fill="#00ad94"/><path d="m358.945312 197.167969h-66.066406c-7.304687 0-13.230468 5.921875-13.230468 13.230469v300.019531h92.527343v-300.019531c0-7.308594-5.921875-13.230469-13.230469-13.230469zm0 0" fill="#ffcd38"/><path d="m323.785156 197.167969h-30.90625c-7.304687 0-13.230468 5.925781-13.230468 13.230469v300.023437h30.90625v-300.023437c0-7.308594 5.925781-13.230469 13.230468-13.230469zm0 0" fill="#e7b835"/><path d="m498.769531 145.355469h-66.066406c-7.304687 0-13.226563 5.921875-13.226563 13.230469v351.832031h92.523438v-351.832031c0-7.308594-5.921875-13.230469-13.230469-13.230469zm0 0" fill="#ff8c57"/><path d="m463.609375 145.355469h-30.90625c-7.304687 0-13.230469 5.921875-13.230469 13.230469v351.835937h30.90625v-351.835937c0-7.308594 5.925782-13.230469 13.230469-13.230469zm0 0" fill="#ec6a34"/><path d="m488.207031 3.464844-83.589843-2.960938c-6.910157-.242187-11.140626 7.503906-7.195313 13.1875l13.484375 19.40625c-45.398438 27.199219-190.671875 103.664063-388.574219 103.664063v55.515625c134.109375 0 244.898438-33.214844 314.222657-61.078125 50.71875-20.386719 87.082031-40.785157 106.09375-52.398438l11.957031 17.214844c3.945312 5.679687 12.683593 4.421875 14.867187-2.140625l26.40625-79.363281c1.769532-5.320313-2.070312-10.847657-7.671875-11.046875zm0 0" fill="#da5b65"/></svg>