<svg width="24" height="24" viewBox="0 0 24 24" fill="none" xmlns="http://www.w3.org/2000/svg">
<path d="M11.3129 11.0657L6.65404 15.1726L6.41873 15.3801L6.12957 15.2585L3.20925 14.0303C2.31565 13.6763 2.25419 12.428 3.09639 11.9563L15.7793 4.65817C16.5712 4.19485 17.6749 4.82365 17.4795 5.83602L15.5134 17.6327C15.4095 18.4042 14.5945 18.8274 13.9199 18.5386L11.3129 11.0657ZM11.3129 11.0657L7.44051 15.7932L7.32731 15.9314V16.1101V18.3249C7.32731 19.4531 8.6825 19.905 9.36171 19.0803L9.36228 19.0796L10.8743 17.2368L13.9194 18.5384L11.3129 11.0657Z" fill="#DFDFE0" stroke="#767071"/>
<path d="M17.5148 8.71552C15.3656 8.71552 13.6242 10.457 13.6242 12.6061C13.6242 14.7553 15.3656 16.4968 17.5148 16.4968C19.664 16.4968 21.4055 14.7553 21.4055 12.6061C21.4055 10.457 19.664 8.71552 17.5148 8.71552Z" fill="#F7F7F7" stroke="#767071"/>
</svg>
