<?xml version="1.0" encoding="iso-8859-1"?>
<!-- Generator: Adobe Illustrator 19.0.0, SVG Export Plug-In . SVG Version: 6.00 Build 0)  -->
<svg version="1.1" id="Capa_1" xmlns="http://www.w3.org/2000/svg" xmlns:xlink="http://www.w3.org/1999/xlink" x="0px" y="0px"
	 viewBox="0 0 512 512" style="enable-background:new 0 0 512 512;" xml:space="preserve">
<g fill="#646464">
	<g>
		<path d="M256,211c-24.814,0-45,20.186-45,45c0,24.814,20.186,45,45,45c24.814,0,45-20.186,45-45C301,231.186,280.814,211,256,211z
			"/>
	</g>
</g>
<g fill="#646464">
	<g>
		<path d="M501.746,211.776l-61.718-20.244c-2.373-6.782-5.156-13.491-8.335-20.054l28.638-57.261
			c2.886-5.771,1.758-12.744-2.813-17.314l-42.422-42.422c-4.57-4.57-11.514-5.698-17.314-2.813l-57.261,28.638
			c-6.563-3.179-13.271-5.962-20.054-8.335l-20.244-61.718C298.187,4.131,292.46,0,286,0h-60c-6.46,0-12.188,4.131-14.224,10.254
			l-20.244,61.718c-6.782,2.373-13.491,5.156-20.054,8.335l-57.261-28.638c-5.786-2.886-12.729-1.787-17.314,2.813L54.481,96.903
			c-4.57,4.57-5.698,11.543-2.813,17.314l28.638,57.261c-3.179,6.563-5.962,13.271-8.335,20.054l-61.718,20.244
			C4.131,213.813,0,219.54,0,226v60c0,6.46,4.131,12.188,10.254,14.224l61.718,20.244c2.373,6.782,5.156,13.491,8.335,20.054
			l-28.638,57.261c-2.886,5.771-1.758,12.744,2.813,17.314l42.422,42.422c4.6,4.585,11.572,5.713,17.314,2.813l57.261-28.638
			c6.563,3.179,13.271,5.962,20.054,8.335l20.244,61.718C213.812,507.869,219.54,512,226,512h60c6.46,0,12.187-4.131,14.224-10.254
			l20.244-61.718c6.782-2.373,13.491-5.156,20.054-8.335l57.261,28.638c5.757,2.871,12.729,1.743,17.314-2.813l42.422-42.422
			c4.57-4.57,5.698-11.543,2.813-17.314l-28.638-57.261c3.179-6.563,5.962-13.271,8.335-20.054l61.718-20.244
			C507.869,298.188,512,292.46,512,286v-60C512,219.54,507.869,213.812,501.746,211.776z M256,361c-57.891,0-105-47.109-105-105
			s47.109-105,105-105s105,47.109,105,105S313.891,361,256,361z"/>
	</g>
</g>
<g>
</g>
<g>
</g>
<g>
</g>
<g>
</g>
<g>
</g>
<g>
</g>
<g>
</g>
<g>
</g>
<g>
</g>
<g>
</g>
<g>
</g>
<g>
</g>
<g>
</g>
<g>
</g>
<g>
</g>
</svg>
