<svg width="14" height="15" viewBox="0 0 14 15" fill="none" xmlns="http://www.w3.org/2000/svg">
<path d="M2.84375 6.875H0.65625C0.273438 6.875 0 7.17578 0 7.53125V14.0938C0 14.4766 0.273438 14.75 0.65625 14.75H2.84375C3.19922 14.75 3.5 14.4766 3.5 14.0938V7.53125C3.5 7.17578 3.19922 6.875 2.84375 6.875ZM1.75 13.6562C1.36719 13.6562 1.09375 13.3828 1.09375 13C1.09375 12.6445 1.36719 12.3438 1.75 12.3438C2.10547 12.3438 2.40625 12.6445 2.40625 13C2.40625 13.3828 2.10547 13.6562 1.75 13.6562ZM10.5 2.99219C10.5 0.96875 9.1875 0.75 8.53125 0.75C7.95703 0.75 7.71094 1.84375 7.60156 2.33594C7.4375 2.9375 7.30078 3.53906 6.89062 3.94922C6.01562 4.85156 5.55078 5.97266 4.45703 7.03906C4.40234 7.12109 4.375 7.20312 4.375 7.28516V13.1367C4.375 13.3008 4.51172 13.4375 4.67578 13.4648C5.11328 13.4648 5.6875 13.7109 6.125 13.9023C7 14.2852 8.06641 14.75 9.37891 14.75H9.46094C10.6367 14.75 12.0312 14.75 12.5781 13.957C12.8242 13.6289 12.8789 13.2188 12.7422 12.7266C13.207 12.2617 13.4258 11.3867 13.207 10.6758C13.6719 10.0469 13.7266 9.14453 13.4531 8.51562C13.7812 8.1875 14 7.66797 13.9727 7.17578C13.9727 6.32812 13.2617 5.5625 12.3594 5.5625H9.57031C9.78906 4.79688 10.5 4.14062 10.5 2.99219Z" fill="#DFDFE0"/>
</svg>
