<svg width="14" height="15" viewBox="0 0 14 15" fill="none" xmlns="http://www.w3.org/2000/svg">
<path d="M0 2.28125V8.84375C0 9.22656 0.273438 9.5 0.65625 9.5H2.84375C3.19922 9.5 3.5 9.22656 3.5 8.84375V2.28125C3.5 1.92578 3.19922 1.625 2.84375 1.625H0.65625C0.273438 1.625 0 1.92578 0 2.28125ZM1.09375 7.75C1.09375 7.39453 1.36719 7.09375 1.75 7.09375C2.10547 7.09375 2.40625 7.39453 2.40625 7.75C2.40625 8.13281 2.10547 8.40625 1.75 8.40625C1.36719 8.40625 1.09375 8.13281 1.09375 7.75ZM8.53125 14.75C9.1875 14.75 10.5 14.5312 10.5 12.5352C10.5 11.3867 9.78906 10.7305 9.57031 9.9375H12.3594C13.2617 9.9375 13.9727 9.19922 14 8.35156C14 7.85938 13.7812 7.33984 13.4531 7.01172C13.7266 6.38281 13.6719 5.48047 13.207 4.85156C13.4258 4.14062 13.207 3.26562 12.7422 2.80078C12.8789 2.30859 12.8242 1.89844 12.5781 1.57031C12.0312 0.777344 10.6367 0.75 9.46094 0.75H9.37891C8.06641 0.777344 7 1.24219 6.125 1.625C5.6875 1.81641 5.11328 2.0625 4.67578 2.0625C4.51172 2.08984 4.375 2.22656 4.375 2.39062V8.24219C4.375 8.32422 4.40234 8.43359 4.45703 8.48828C5.55078 9.55469 6.01562 10.6758 6.89062 11.5781C7.30078 11.9883 7.4375 12.5898 7.60156 13.1914C7.71094 13.6836 7.95703 14.75 8.53125 14.75Z" fill="#DFDFE0"/>
</svg>
