<svg width="20" height="15" viewBox="0 0 20 15" fill="none" xmlns="http://www.w3.org/2000/svg">
<path d="M13.7627 7.68807L13.3071 8.11893C12.9395 7.99546 12.5465 7.92857 12.1375 7.92857H11.9125H11.7963L11.692 7.97981C11.1598 8.24131 10.5879 8.39286 10 8.39286C9.38233 8.39286 8.81044 8.24049 8.27986 7.97981L8.17557 7.92857H8.05938H7.83438C7.42422 7.92857 7.0316 7.99569 6.66536 8.1195L6.20919 7.68807C5.80632 7.30705 5.23928 7 4.6 7H4.26626C5.26261 6.7433 6 5.82368 6 4.71429C6 3.43736 4.97513 2.35714 3.7 2.35714C2.39174 2.35714 1.4 3.44255 1.4 4.71429C1.4 5.81976 2.11422 6.7427 3.124 7H2.8C1.49174 7 0.5 8.08541 0.5 9.35714V10.2857C0.5 11.0693 1.10299 11.7143 1.9 11.7143H3.72813H4.10079C4.10026 11.741 4.1 11.7678 4.1 11.7946V12.6071C4.1 13.6519 4.89987 14.5 5.95 14.5H14.05C15.0653 14.5 15.9 13.6588 15.9 12.6071V11.7946C15.9 11.7678 15.8997 11.741 15.8992 11.7143H16.2438H18.1C18.8589 11.7143 19.5 11.0796 19.5 10.2857V9.35714C19.5 8.08022 18.4751 7 17.2 7H16.8663C17.8626 6.7433 18.6 5.82368 18.6 4.71429C18.6 3.43736 17.5751 2.35714 16.3 2.35714C14.9917 2.35714 14 3.44255 14 4.71429C14 5.81976 14.7142 6.7427 15.724 7H15.4C14.7365 7 14.1691 7.30369 13.7627 7.68807ZM10 8C12.0035 8 13.65 6.31334 13.65 4.25C13.65 2.21861 12.0064 0.5 10 0.5C7.96264 0.5 6.35 2.22156 6.35 4.25C6.35 6.3104 7.96549 8 10 8Z" fill="#DFDFE0" stroke="#767071"/>
</svg>
